# xmcd
#
# Track frame offsets:
#	150
#	20749
#	48229
#	71669
#	87281
#	104702
#	123385
#	141268
#	158451
#	178631
#	192783
#	211577
#	232428
#
# Disc length: 3304 seconds
#
# Revision: 0
# Processed by: cddbd v1.4PL0 Copyright (c) Steve Scherf et al.
# Submitted via: dBpowerAMP V4.0
#
DISCID=b70ce60d
DTITLE=Danny Rhodes and the Messengers - Welcome To The Night
DYEAR=2002
DGENRE=Blues
TTITLE0=Way Past Midnight
TTITLE1=Do Your Business
TTITLE2=Meadowlark
TTITLE3=Two Tons of Love
TTITLE4=Baby Please Dont Go
TTITLE5=O Louisian
TTITLE6=Your Kinda Love
TTITLE7=You Cant Make The Sun Go Down
TTITLE8=Dark Side of Heaven
TTITLE9=Got My Baby Back Again
TTITLE10=Mississippi Pipeline Blues
TTITLE11=Brother, Brother
TTITLE12=Turn It Up
EXTD=
EXTT0=
EXTT1=
EXTT2=
EXTT3=
EXTT4=
EXTT5=
EXTT6=
EXTT7=
EXTT8=
EXTT9=
EXTT10=
EXTT11=
EXTT12=
PLAYORDER=
